<svg xmlns="http://www.w3.org/2000/svg" width="815" height="446" fill="none"><path fill="#D5F5D8" d="M641.189 127.955a.674.674 0 0 1-.737-.092l-1.47-1.281a.672.672 0 0 0-.793-.07 21.146 21.146 0 0 0-2.971 2.213.677.677 0 0 0-.158.777l.807 1.775a.67.67 0 0 1-.122.73c-.31.335-.604.681-.885 1.034a.667.667 0 0 1-.7.236l-1.883-.515a.668.668 0 0 0-.741.279 20.93 20.93 0 0 0-1.714 3.282.672.672 0 0 0 .191.77l1.5 1.248c.211.173.288.453.211.711a20.71 20.71 0 0 0-.351 1.315.665.665 0 0 1-.53.515l-1.925.35a.665.665 0 0 0-.545.575 20.542 20.542 0 0 0-.118 3.701.682.682 0 0 0 .509.611l1.891.476a.667.667 0 0 1 .494.548c.073.446.162.892.265 1.337a.672.672 0 0 1-.251.696l-1.581 1.149a.668.668 0 0 0-.243.755 20.922 20.922 0 0 0 1.493 3.389.674.674 0 0 0 .722.327l1.917-.39a.672.672 0 0 1 .685.28c.258.379.535.74.819 1.094a.67.67 0 0 1 .073.736l-.921 1.717a.674.674 0 0 0 .107.788 20.95 20.95 0 0 0 2.82 2.405.67.67 0 0 0 .792-.019l1.556-1.182a.67.67 0 0 1 .737-.044c.394.224.8.434 1.209.626a.669.669 0 0 1 .383.633l-.084 1.949a.676.676 0 0 0 .438.663c1.154.419 2.356.736 3.583.946a.67.67 0 0 0 .708-.361l.885-1.738a.67.67 0 0 1 .648-.361c.454.033.911.051 1.364.048.269 0 .516.154.623.401l.767 1.79a.669.669 0 0 0 .682.405 21.01 21.01 0 0 0 1.839-.269 20.955 20.955 0 0 0 1.803-.434.672.672 0 0 0 .479-.63l.055-2.401c.17-.063.339-.122.509-.192a18.47 18.47 0 0 0 1.153-.512.676.676 0 0 1 .741.092l1.467 1.282a.672.672 0 0 0 .793.07 20.752 20.752 0 0 0 2.975-2.217.673.673 0 0 0 .158-.774l-.807-1.775a.663.663 0 0 1 .118-.729c.31-.335.608-.681.888-1.035a.669.669 0 0 1 .701-.236l1.879.516a.673.673 0 0 0 .745-.28 21.006 21.006 0 0 0 1.714-3.281.669.669 0 0 0-.195-.77l-1.497-1.249c-.21-.173-.287-.453-.21-.71.133-.435.247-.873.35-1.315a.662.662 0 0 1 .531-.516l1.92-.35a.659.659 0 0 0 .546-.574c.151-1.216.195-2.453.122-3.701a.676.676 0 0 0-.513-.608l-1.887-.475a.679.679 0 0 1-.498-.549c-.07-.446-.158-.891-.261-1.337a.667.667 0 0 1 .25-.696l1.582-1.149a.674.674 0 0 0 .243-.755 20.86 20.86 0 0 0-1.497-3.388.677.677 0 0 0-.722-.328l-1.913.39a.666.666 0 0 1-.686-.283 16.738 16.738 0 0 0-.818-1.09.673.673 0 0 1-.074-.737l.922-1.716a.675.675 0 0 0-.107-.785 20.664 20.664 0 0 0-2.82-2.405.671.671 0 0 0-.793.019l-1.555 1.182a.67.67 0 0 1-.737.044c-.395-.224-.8-.434-1.209-.626a.668.668 0 0 1-.384-.633l.081-1.952a.674.674 0 0 0-.435-.663 20.693 20.693 0 0 0-3.586-.943.664.664 0 0 0-.704.361l-.889 1.738a.67.67 0 0 1-.648.361c-.45-.033-.907-.048-1.364-.048a.665.665 0 0 1-.619-.401l-.767-1.786a.673.673 0 0 0-.686-.406c-.608.063-1.22.151-1.835.269-.612.118-1.213.266-1.803.439a.662.662 0 0 0-.479.629l-.055 2.398c-.17.063-.343.121-.513.191-.394.148-.778.317-1.154.501Zm2.33 1.083c8.463-3.123 17.859 1.201 20.985 9.657 3.126 8.456-1.202 17.843-9.665 20.966-8.467 3.124-17.863-1.2-20.985-9.656-3.126-8.456 1.202-17.844 9.665-20.967Z"/><path fill="#D5F5D8" d="M641.189 127.955a.674.674 0 0 1-.737-.092l-1.471-1.282a.671.671 0 0 0-.792-.069 21.068 21.068 0 0 0-2.971 2.213.675.675 0 0 0-.159.777l.808 1.775a.667.667 0 0 1-.122.729c-.31.336-.604.682-.885 1.035a.667.667 0 0 1-.7.236l-1.884-.516a.671.671 0 0 0-.741.28 21.101 21.101 0 0 0-1.714 3.282.674.674 0 0 0 .192.77l1.5 1.248c.211.173.288.453.211.711-.133.434-.247.873-.351 1.315a.665.665 0 0 1-.53.515l-1.925.35a.665.665 0 0 0-.545.575 20.54 20.54 0 0 0-.118 3.701.681.681 0 0 0 .509.611l1.891.475a.667.667 0 0 1 .493.549c.074.446.163.891.266 1.337a.672.672 0 0 1-.251.696l-1.581 1.149a.668.668 0 0 0-.243.755c.335.987.74 1.93 1.205 2.84l4.117-2.111a16.794 16.794 0 0 1-.8-1.808c-3.125-8.456 1.202-17.844 9.665-20.967 7.848-2.898 16.496.615 20.2 7.882l4.118-2.111c-.1-.195-.199-.39-.306-.585a.678.678 0 0 0-.723-.328l-1.913.39a.665.665 0 0 1-.686-.283c-.258-.376-.534-.74-.818-1.09a.674.674 0 0 1-.074-.737l.922-1.716a.675.675 0 0 0-.107-.785 20.657 20.657 0 0 0-2.82-2.404.668.668 0 0 0-.792.018l-1.556 1.182a.67.67 0 0 1-.737.044c-.394-.224-.8-.434-1.209-.626a.666.666 0 0 1-.383-.633l.081-1.952a.677.677 0 0 0-.435-.663 20.727 20.727 0 0 0-3.587-.943.666.666 0 0 0-.704.361l-.888 1.738a.673.673 0 0 1-.649.361c-.45-.033-.907-.048-1.364-.048a.665.665 0 0 1-.619-.401l-.767-1.786a.67.67 0 0 0-.685-.405 19.584 19.584 0 0 0-3.639.707.663.663 0 0 0-.479.63l-.055 2.397c-.17.063-.343.122-.513.192-.39.162-.774.331-1.15.515Z"/><path fill="#D5F5D8" d="M657.419 139.59c2.547 4.577.896 10.374-3.689 12.923-4.582 2.545-10.384.895-12.935-3.683-2.547-4.582-.896-10.378 3.686-12.927 4.586-2.549 10.391-.895 12.938 3.687Zm-13.587 7.549a6.042 6.042 0 0 0 8.213 2.339 6.035 6.035 0 0 0 2.344-8.205c-1.618-2.91-5.3-3.96-8.216-2.343-2.912 1.624-3.963 5.304-2.341 8.209Z"/><path fill="#D5F5D8" d="m631.263 143.64.04 1.734 10.539-.24-.04-1.734-10.539.24ZM656.83 143.072l.039 1.735 10.539-.241-.039-1.734-10.539.24ZM657.286 128.153l-5.238 9.141 1.507.862 5.237-9.141-1.506-.862ZM644.586 150.311l-5.237 9.141 1.506.862 5.238-9.141-1.507-.862ZM641.621 127.859l-1.499.876 5.326 9.09 1.499-.876-5.326-9.09ZM654.526 149.9l-1.498.876 5.326 9.09 1.498-.876-5.326-9.09Z"/><path fill="#67CB33" d="M311.612 325.444h-20.801v41.709H249.07v-41.709H144.783l23.27-166.685h41.741l-18.18 125.123h57.456V179.689h41.741v104.197h20.801v41.558ZM503.163 262.956c0 19.762-2.182 36.475-6.542 50.135-4.365 13.66-10.329 24.705-17.893 33.135-7.564 8.431-16.41 14.507-26.543 18.238s-20.967 5.594-32.504 5.594c-11.541 0-22.379-1.915-32.508-5.738-10.133-3.826-18.961-9.977-26.474-18.455-7.516-8.478-13.454-19.523-17.818-33.135-4.364-13.612-6.543-30.203-6.543-49.774 0-19.766 2.182-36.45 6.543-50.062 4.36-13.612 10.302-24.631 17.818-33.065 7.513-8.427 16.341-14.529 26.474-18.308 10.129-3.778 20.967-5.668 32.508-5.668 11.537 0 22.371 1.915 32.504 5.742 10.133 3.83 18.979 10.006 26.543 18.529 7.564 8.526 13.528 19.571 17.893 33.135 4.364 13.564 6.542 30.13 6.542 49.697Zm-39.706 0c0-23.155-3.852-40.35-11.563-51.59-7.708-11.237-18.449-16.861-32.213-16.861-13.676 0-24.292 5.576-31.856 16.713-7.563 11.141-11.345 28.388-11.345 51.734 0 23.155 3.782 40.354 11.345 51.59 7.564 11.241 18.18 16.857 31.856 16.857 6.882 0 13.037-1.381 18.471-4.143 5.429-2.762 10.011-6.95 13.745-12.57 3.734-5.616 6.595-12.717 8.581-21.291 1.984-8.566 2.979-18.713 2.979-30.439ZM690.793 325.444h-20.8v41.709h-41.742v-41.709H523.964l23.27-166.685h41.742l-18.18 125.123h57.452V179.689h41.741v104.197h20.801l.003 41.558Z"/><path fill="#D5F5D8" d="M102.319 394.134c31.09 0 56.294-3.842 56.294-8.582 0-4.739-25.204-8.581-56.294-8.581-31.09 0-56.294 3.842-56.294 8.581 0 4.74 25.203 8.582 56.294 8.582Z"/><path fill="#5B5B5B" d="M130.403 384.635c.435-2.544-3.126-1.841-5.19-2.416.623.372 1.246.91.288 1.208-1.401.439-4.505.07-5.445-.924-.328.766-.383 1.823-.357 2.545.04.932 10.402 1.359 10.704-.413Z"/><path fill="#FF97A6" d="M125.501 383.424c.958-.299.335-.836-.288-1.208-1.283-.354-2.355-.604-2.595-.7-.627-.258-.815-.825-.815-.825l-.648-.118s-1.003 1.705-1.099 1.926c.944.995 4.044 1.363 5.445.925Z"/><path fill="#5B5B5B" d="M72.797 384.182c-.431-2.541 3.126-1.841 5.19-2.412-.623.372-1.242.906-.288 1.204 1.401.439 4.508.07 5.448-.924.325.766.384 1.823.358 2.545-.04.935-10.402 1.363-10.708-.413Z"/><path fill="#FF97A6" d="M77.7 382.974c-.955-.298-.336-.836.287-1.204 1.282-.357 2.359-.604 2.595-.7a1.51 1.51 0 0 0 .818-.828l.645-.118s1.007 1.705 1.102 1.926c-.943.994-4.05 1.363-5.448.924Z"/><path fill="#545454" d="M115.043 264.499c.03.309 4.114 6.283 7.07 14.242 4.6 12.404 1.957 88.194.159 101.464-.24 1.79-4.52 0-4.615-2.228-.627-13.988-16.378-84.755-16.378-84.755l-18.747 87.69h-4.398s-2.86-84.574 6.735-119.691c4.154-.876 23.731 2.759 30.174 3.278Z"/><path fill="#303030" d="M116.204 262.124c.03.309 4.431 9.196 6.823 17.339 4.283 14.584 1.047 87.469-.752 100.738-.129.954-1.404.891-2.58.287-.505-.257 2.123-26.793-4.541-58.738-2.511-12.014-6.145-25.876-8.512-35.375-3.269-13.118-8.216-21.626-6.255-21.559 5.481.191 12.894-2.928 15.817-2.692Z"/><path fill="#357A5F" d="M83.538 229.556c2.706-2.862 11.283-6.744 27.753-5.746 1.636.1 3.759 1.65 5.426 2.276-.321 5.517 2.281 11.134 2.281 11.134-1.168 3.697-1.791 7.885-2.093 11.535-.391 4.703-.004 14.919-.004 14.919s-10.782 2.401-16.101 2.99c-4.368.483-16.48-1.27-16.93-3.848-.892-5.119-.627-10.839-.373-18.334.3-8.747.041-14.926.041-14.926Z"/><path fill="#2C6D51" d="M101.187 223.821s2.145-.129 3.295-.154a82.29 82.29 0 0 1 6.812.143c1.637.1 5.533 2.402 7.708 6.316-.324 5.521 0 7.094 0 7.094-1.168 3.697-1.791 7.885-2.094 11.535-.39 4.703-.003 14.919-.003 14.919s-6.528 2.07-8.759 2.468c-1.802.32-7.939.567-7.939.567s.368-2.928-.926-13.807c-1.434-11.966 1.906-29.081 1.906-29.081Z"/><path fill="#FF97A6" d="M102.802 219.185s1.139 5.922.527 6.562c-.612.641-2.831 1.44-4.08-.07-1.25-1.51.12-6.607.12-6.607l3.433.115Z"/><path fill="#C95D77" d="M103.439 223.497c-1.323.461-3.295-.342-4.593-1.746-.01-1.075.048-.452.221-1.347l3.631-1.558c.14.854.653 3.664.741 4.651Z"/><path fill="#29664C" d="M98.728 223.162s-.195 1.3 2.245 3.399l-1.758 2.704s-2.425-2.074-.487-6.103Z"/><path fill="#1A4F37" d="M103.421 223.114s.151.652-2.643 3.458l1.714 2.287s3.388-2.01.929-5.745Z"/><path fill="#FF97A6" d="M97.258 217.84c-.295-.685-.07-2.872.066-3.948.059-.445.265-.869.634-1.127 1.976-1.381 6.071-.53 6.827.037.914.692.848 2.066.825 3.09-.025 1.02-.991 6.103-4.298 5.756-3.608-.368-3.586-1.808-4.054-3.808Z"/><path fill="#357A5F" d="M77.176 267.014c.225-3.137-1.33-20.874-1.33-20.874s-5.965-4.423-7.122-1.157c-1.272 3.606-2.23 8.559-3.583 14.047-1.324 5.388 4.117 13.925 4.117 13.925s7.69-2.803 7.918-5.941Z"/><path fill="#357A5F" d="M75.65 248.707s1.872-2.954 5.134-6.467c2.054-2.214 4.498-3.72 9.389-9.178 1.493-1.669 4.718-7.948-.999-6.847-6.937 1.337-17.852 13.435-19.93 17.568-3.149 6.242 6.406 4.924 6.406 4.924Z"/><path fill="#3B3B3B" d="M103.181 348.385h-6.063c-.502 0-.94-.343-1.058-.829l-2.717-11.049a1.099 1.099 0 0 1 .195-.928c.207-.261.52-.416.848-.42l11.541-.125c.362-.011.657.151.863.413.21.265.284.611.206.935l-2.761 11.174c-.117.49-.556.829-1.054.829Zm-5.208-2.173h4.357l2.219-8.987-8.762.096 2.186 8.891ZM103.642 321.348h-6.948v9.922h6.948v-9.922Z"/><path fill="#5B5B5B" d="M103.642 325.849v-8.714h2.403v6.313a2.403 2.403 0 0 1-2.403 2.401ZM96.694 325.709a2.402 2.402 0 0 1-2.4-2.401v-6.313h2.4v8.714Z"/><path fill="#FFCB48" d="M106.045 294.883h-11.75v25.596h11.75v-25.596ZM106.565 291.274H93.771l-2.754-6.604h18.305l-2.757 6.604ZM112.747 271.467l-25.158.044 1.983-11.155c0-1.742 1.272-3.149 2.842-3.149h16.097c1.571 0 2.842 1.41 2.842 3.149l1.394 11.111Z"/><path fill="#3B3B3B" d="M82.056 277.389H68.591a2.872 2.872 0 0 1-2.875-2.872 2.878 2.878 0 0 1 2.875-2.877h13.465v5.749Z"/><path fill="#5B5B5B" d="M83.221 281.183h-.21a2.848 2.848 0 0 1-2.85-2.847v-4.151a2.85 2.85 0 0 1 2.85-2.847h.21v9.845Z"/><path fill="#B2B2B2" d="m86.84 283.4-3.446-1.569a.827.827 0 0 1-.483-.748v-9.745h4.84v11.476a.646.646 0 0 1-.91.586Z"/><path fill="#3B3B3B" d="M117.815 277.455h13.465a2.874 2.874 0 1 0 0-5.749h-13.465v5.749Z"/><path fill="#5B5B5B" d="M116.654 281.249h.21a2.845 2.845 0 0 0 2.849-2.847v-4.147a2.847 2.847 0 0 0-2.849-2.847h-.21v9.841Z"/><path fill="#C1C1C1" d="m113.034 283.462 3.447-1.565a.825.825 0 0 0 .483-.751v-9.745h-4.837v11.476c-.003.471.48.78.907.585Z"/><path fill="#FF9A2E" d="M103.683 287.178h-7.034c-5.002 0-9.06-4.055-9.06-9.052v-6.788h25.158v6.788c0 4.997-4.055 9.052-9.064 9.052ZM100.701 297.023h-1.062a6.382 6.382 0 0 1-6.384-6.379v-.471h13.834v.471a6.386 6.386 0 0 1-6.388 6.379Z"/><path fill="#C1C1C1" d="M106.045 320.479h-11.75v1.742h11.75v-1.742Z"/><path fill="#5B5B5B" d="M103.078 338.949h-5.772a.787.787 0 0 1-.774-.645l-1.143-6.371a1.004 1.004 0 0 1 .991-1.179h7.579c.627 0 1.099.568.988 1.179l-1.15 6.419a.732.732 0 0 1-.719.597ZM101.567 340.065h-2.802v43.071h2.802v-43.071Z"/><path fill="#5B5B5B" d="M101.604 389.559h-2.868a.902.902 0 0 1-.896-.784l-1.168-8.913a1.326 1.326 0 0 1 1.312-1.495h4.375c.8 0 1.416.704 1.309 1.495l-1.169 8.913a.902.902 0 0 1-.895.784ZM106.654 271.334h-13.27l-1.338-14.127h16.241l-1.633 14.127ZM100.52 340.967h-.704a2.078 2.078 0 0 1-2.08-2.077v-.155h4.867v.155a2.084 2.084 0 0 1-2.083 2.077ZM94.29 272.539h-1.04v13.052h1.04v-13.052ZM96.336 272.539h-1.04v13.052h1.04v-13.052ZM98.382 272.539h-1.04v13.052h1.04v-13.052ZM100.424 272.539h-1.04v13.052h1.04v-13.052ZM102.474 272.539h-1.04v13.052h1.04v-13.052ZM104.519 272.539h-1.039v13.052h1.039v-13.052ZM106.561 272.539h-1.039v13.052h1.039v-13.052Z"/><path fill="#FF9A2E" d="M100.446 318.722h-.56a3.55 3.55 0 0 1-3.55-3.546v-12.942a3.55 3.55 0 0 1 3.55-3.547h.56a3.548 3.548 0 0 1 3.55 3.547v12.942a3.545 3.545 0 0 1-3.55 3.546Z"/><path fill="#FF97A6" d="M70.976 270.104c-1.113.295-2.496.954-2.99 2.173-.383.943.093 2.928.505 3.19.413.265.535-.354.535-.354s.114.623.53.479c.255-.088.458-1.444.896-2.339.27-.548.844-1.009.926-1.403 0 0 .073 1.26.453 1.186.38-.077 1.003-1.83.866-2.523-.092-.46-1.257-.534-1.721-.409Z"/><path fill="#FF97A6" d="M68.344 273.592s-.593 2.088-.833 1.304c-.236-.781.339-3.528 1.375-3.79 1.04-.261-.542 2.486-.542 2.486Z"/><path fill="#FF97A6" d="M68.278 272.31s-.944.829-1.678.999c-.733.169 1.692-2.424 2.868-2.601 1.183-.173-1.19 1.602-1.19 1.602Z"/><path fill="#2C6D51" d="M124.218 267.471c-.225-3.138 1.331-20.871 1.331-20.871s5.964-4.423 7.121-1.156c1.272 3.605 2.23 8.559 3.583 14.046 1.323 5.388-4.117 13.925-4.117 13.925s-7.693-2.806-7.918-5.944Z"/><path fill="#2C6D51" d="M125.744 249.163s-1.873-2.953-5.135-6.467c-2.053-2.213-4.497-3.723-9.388-9.178-1.493-1.668-4.873-10.474.877-9.557 9.082 1.451 17.973 16.146 20.049 20.278 3.148 6.243-6.403 4.924-6.403 4.924Z"/><path fill="#FF97A6" d="M130.414 270.557c1.113.295 2.496.954 2.99 2.177.383.943-.093 2.928-.509 3.189-.409.265-.531-.353-.531-.353s-.114.618-.531.475c-.254-.089-.457-1.44-.895-2.335-.27-.549-.845-1.009-.926-1.403 0 0-.077 1.259-.453 1.186-.38-.078-1.006-1.831-.866-2.523.096-.461 1.253-.534 1.721-.413Z"/><path fill="#FF97A6" d="M133.05 274.049s.589 2.088.833 1.307c.236-.781-.339-3.528-1.379-3.79-1.036-.265.546 2.483.546 2.483Z"/><path fill="#FF97A6" d="M133.116 272.767s.944.829 1.677.998c.734.17-1.692-2.423-2.868-2.6-1.183-.173 1.191 1.602 1.191 1.602Z"/><path fill="#FF5E4D" d="m96.96 218.967-.406.045a3.17 3.17 0 1 1-.664-6.306l.406-.04.663 6.301Z"/><path fill="#5B5B5B" d="M96.96 218.967a.616.616 0 0 1-.68-.545l-.537-5.082a.61.61 0 0 1 .545-.674.61.61 0 0 1 .675.545l.538 5.082a.612.612 0 0 1-.542.674Z"/><path fill="#FF5E4D" d="m105.559 218.801.402.07a3.167 3.167 0 0 0 3.656-2.592 3.167 3.167 0 0 0-2.595-3.657l-.402-.07-1.061 6.249Z"/><path fill="#5B5B5B" d="M105.559 218.801a.61.61 0 0 0 .708-.5l.851-5.039a.609.609 0 0 0-.501-.707.615.615 0 0 0-.708.501l-.855 5.038a.613.613 0 0 0 .505.707Z"/><path fill="#FFCB48" d="M105.957 215.454H96.76v-2.055a4.596 4.596 0 0 1 9.193 0v2.055h.004Z"/><path fill="#FF9A2E" d="M99.348 215.549h-.936l.132-1.049a.171.171 0 0 1 .17-.151h.464c.092 0 .17.077.17.169v1.031ZM103.425 215.454h.936l-.133-1.05a.17.17 0 0 0-.169-.151h-.461a.172.172 0 0 0-.173.173v1.028Z"/><path fill="#FFCB48" d="M102.234 210.74h-1.751v-1.507a.873.873 0 0 1 1.747 0v1.507h.004Z"/><path fill="#FFCB48" d="M100.59 210.74h-.888v-1.094c0-.49.398-.888.888-.888v1.982ZM102.109 210.74h.91v-1.072a.91.91 0 0 0-.91-.913v1.985Z"/><path fill="#FF9A2E" d="M96.771 215.236s1.253.255 4.792.207c3.542-.048 4.398-.358 4.398-.358s.103 1.142-.649 1.389c-.697.228-5.81.681-7.778.033-.497-.162-.822-.692-.767-1.245 0-.007 0-.018.004-.026ZM100.483 208.806c.026.21.037.42.044.626.011.21.015.42.015.626 0 .207 0 .42-.011.626-.011.207-.022.42-.048.626-.022-.209-.033-.419-.044-.626a16.445 16.445 0 0 1 0-1.252c.011-.206.022-.416.044-.626ZM102.167 208.806c.026.21.037.42.045.626.011.21.014.42.014.626 0 .207-.003.42-.014.626-.008.21-.019.42-.045.626-.022-.209-.033-.419-.044-.626-.011-.206-.011-.419-.014-.626.003-.21.003-.42.014-.626.011-.206.022-.416.044-.626ZM99.735 209.101c.033.191.037.383.04.574 0 .192-.007.383-.04.575a3.777 3.777 0 0 1-.037-.575c0-.191.007-.383.037-.574ZM102.953 209.101c.029.21.036.416.04.626-.004.21-.011.416-.04.626-.03-.21-.037-.42-.037-.626 0-.206.007-.416.037-.626Z"/><path fill="#5B5B5B" d="M96.546 213.17c-.015 0-.026 0-.04-.003a.198.198 0 0 1-.159-.232c.026-.126.62-3.035 2.942-3.757 1.345-.42 2.868-.39 4.069.077 1.438.56 2.448 1.72 3.004 3.451a.2.2 0 0 1-.129.251c-.103.033-.221-.022-.25-.129-.531-1.632-1.434-2.681-2.769-3.201-1.12-.434-2.543-.46-3.807-.07-2.09.652-2.662 3.426-2.67 3.455a.194.194 0 0 1-.19.158Z"/><path fill="#C43B72" d="M720.098 59.343s3.336-2.173 6.79-.748c3.111 1.285 2.613 3.631 2.613 3.631s6.834-3.226 12.702 5.55c5.872 8.777-4.98 17.244-8.242 16.46-3.266-.781-24.962-10-24.962-10s.011-14.01 3.019-15.287c3.008-1.278 8.08.394 8.08.394Z"/><path fill="#F98A8A" d="M708.166 98.823c5.135.376 1.773 34.038 2.569 49.009.243 4.655.899 9.27 1.954 13.807l7.534 42.048.737-.177s4.276-32.465 2.352-49.808c-1.349-12.194 12.621-39.145 1.169-55.924-3.355-.7-11.121.589-16.315 1.045Z"/><path fill="#3B3B3B" d="M714.661 206.066c.184-.49 2.005-1.344 3.354-1.797-.398.269-.793.652-.151.821.944.247 2.986-.103 3.575-.803.24.505.317 1.216.321 1.702.011.629-7.523 1.215-7.099.077Z"/><path fill="#F98A8A" d="M717.868 205.09c-.642-.169-.247-.552.151-.821.836-.284 1.541-.483 1.695-.56.402-.195.513-.582.513-.582l.424-.103s.722 1.116.792 1.263c-.593.7-2.635 1.05-3.575.803Z"/><path fill="#FF97A6" d="M713.839 99.262c-.015.254 14.803 55.321 14.803 55.321l5.835 48.393.844.302s9.193-35.301 3.786-51.369c-2.687-7.992 2.451-20.51 2.223-34.748-.104-6.471-2.842-14.614-8.231-19.115-3.384-.578-14.089.556-19.26 1.216Z"/><path fill="#5B5B5B" d="M732.579 98.249s3.667.324 7.999 11.631c4.335 11.302 1.813 33.728 1.813 33.728s-21.674 7.966-33.89 2.736l2.05-42.88 22.028-5.215Z"/><path fill="#3B3B3B" d="M732.579 98.249s3.667.324 7.999 11.631c4.335 11.302 1.813 33.728 1.813 33.728s-9.569 3.403-18.32 4.224c-.114.011-3.033.147-3.033.147s-.078-18.591.033-24.893c.269-14.912-1.523-22.115-1.523-22.115l13.031-2.722ZM729.014 205.908c.166-.498 1.95-1.418 3.285-1.927-.387.288-.767.685-.118.829.951.214 2.978-.217 3.538-.939.262.497.365 1.204.387 1.69.034.627-7.475 1.499-7.092.347Z"/><path fill="#FF97A6" d="M732.177 204.81c-.649-.144-.269-.541.118-.829.826-.313 1.519-.541 1.67-.622.398-.214.49-.604.49-.604l.42-.118s.767 1.087.841 1.23c-.561.726-2.588 1.153-3.539.943Z"/><path fill="#AAE8B7" d="M706.994 94.702s-16.481-.412-20.219-2.54c-.28-.16-.763-.885-.928-1.19-1.147-2.096-2.868-6.608 5.337-5.893 9.271.81 15.953 3.904 15.953 3.904s-.372.972-.143 5.72Z"/><path fill="#AAE8B7" d="M716.548 70.093S709.67 85.55 705.114 90.81c-5.939 6.858-5.238-3.752-5.238-3.752s2.466-8.703 5.223-12.578c2.573-3.612 11.051-8.728 11.449-4.386Z"/><path fill="#AAE8B7" d="M706.949 78.151c-.822 6.722-1.091 9.458 1.316 17.995.704 2.497 24.686 4.047 24.959 2.615.099-.52.874-4.56 1.301-6.703 2.039-10.305 2.809-13.306 1.338-17.11-1.021-2.652-1.607-5.765-15.474-7.043-4.35-.401-7.568.91-8.961 1.835-2.47 1.638-4.136 5.605-4.479 8.411Z"/><path fill="#A0E29F" d="M719.759 67.806s-3.086 6.504-3.51 13.656c-.446 7.554.94 15.848 1.405 17.14 0 0-5.839.078-8.736-1.66a1.878 1.878 0 0 1-.87-1.146c-.734-2.806-3.487-14.32-1.095-21.04 2.743-7.701 12.806-6.95 12.806-6.95Z"/><path fill="#AAE8B7" d="M727.853 93.62c.384-2.571 1.6-10.902 1.6-10.902s-.018-15.527 5.282-9.918c3.635 3.852 1.559 18.36-1.64 26.69-1.169 3.035-6.115 0-5.242-5.87Z"/><path fill="#AAE8B7" d="M724.683 94.16s-19.138 4.03-19.783 6.925c-.641 2.898 2.407 5.539 7.826 6.099 2.351.239 16.926-.162 20.092-7.186 2.953-6.544-8.135-5.837-8.135-5.837Z"/><path fill="#FF97A6" d="M716.655 63.792s1.441 4.905 1.917 5.321c.479.417 1.706.711 1.758-.688.052-1.4-2.215-5.26-2.215-5.26l-1.46.627Z"/><path fill="#C95D77" d="M717.587 66.778c.712.453 2.216.424 2.076-.574-.347-.858-.616-1.326-.984-2.015l-1.748.733c.222.7.376 1.054.656 1.856Z"/><path fill="#FF97A6" d="M719.847 62.488c-.011-.866-1.71-3.543-1.71-3.543-1.648-1.646-5.574 1.418-6.016 2.206-.483.865.052 1.926.428 2.725.376.796 1.338 2.089 2.156 2.501.745.38 2.285.258 2.997-.125 2.141-1.153 2.469-2.026 2.145-3.764Z"/><path fill="#C43B72" d="m731.499 94.279-.044 2.32-11.265 5.237-9.499-.457 9.591-2.519 11.217-4.581Z"/><path fill="#AF2765" d="m689.252 98.072 30.569.976 11.678-4.77-42.165-.765-.082 4.56Z"/><path fill="#C43B72" d="m689.208 100.344 30.982 1.492-3.767-24.565-31.188.38 3.973 22.693ZM721.325 101.044l-1.135.792-3.767-24.565 1.356-.284 3.546 24.057Z"/><path fill="#C43B72" d="m717.772 76.991-30.046.383-2.499.28 31.188-.379 1.357-.284Z"/><path fill="#FF97A6" d="M703.683 101.924c-.53-.537-.81-1.403-.788-1.937.014-.364.221-.438.221-.438s-.1-.46.225-.479c.202-.01.726.858 1.286 1.348a5.63 5.63 0 0 0 1.036.696s-.313-.887-.033-.943c.28-.059.626 1.032.829 1.558.173.464-2.086.891-2.776.195Z"/><path fill="#FF97A6" d="M705.364 100.945c-.582-.777-1.172-2.122-1.375-2.015-.317.17-.136.693.24 1.389.38.696 1.135.626 1.135.626ZM687.1 88.301c.449-.261.693-.545 1.084-.895.047-.04.202-.18.324-.324.092-.08.258-.198.195-.338-.04-.078-.107-.093-.18-.089 0 0-.008-.007-.015-.007-.011.003-.022.01-.033.014-.03.004-.063.015-.089.023-.022.007-.044.018-.066.025l-.173.07a2.82 2.82 0 0 0 .224-.283c.071-.11.255-.34.24-.483-.011-.092-.037-.096-.096-.147-.048-.037-.121-.015-.151-.048-.026-.03.022-.114-.007-.155.018-.11-.387-.383-.87-.014.195-.243.059-.324-.015-.306-.287.063-.921.45-1.058.703-.284.516.498 2.383.686 2.254Z"/><path fill="#C43B72" d="M713.419 58.772s.162 4.931 4.791 5.097c0 0 .262 6.228 5.998 6.228 5.735.003 6.402-.291 6.402-.291l-2.44-8.276-14.751-2.758Z"/><path fill="#FD9E38" d="m713.474 60.996.103.55a.275.275 0 0 0 .324.224.28.28 0 0 0 .228-.324l-.103-.553-.552.103Zm.401.608a.108.108 0 0 1-.129-.088.112.112 0 0 1 .089-.13.108.108 0 0 1 .125.09.104.104 0 0 1-.085.128Z"/><path fill="#3D6E29" d="m716.946 60.4.859.887a.265.265 0 0 0 .232.07l1.427-.306.136.251s.501-.59.52-1.013c.018-.423-3.174.11-3.174.11Z"/><path fill="#FFCB48" d="M709.098 62.937s-.287.66 3.019-.773c.233-.103.457-.225.671-.369.583-.394 2.002-1.266 3.292-1.31 1.666-.063 1.511.441 2.694.264 1.184-.172 2.216-.567 2.194-.82 0 0-.008-.09-.317-.056l-.402-1.208-.236-.114s-1.18-4.306-5.05-3.712c-3.867.592-4.169 2.787-4.379 3.84-.14.7-.118 1.805-.089 2.472a.97.97 0 0 1-.431.847c-.413.273-.943.674-.966.94Z"/><path fill="#FD9E38" d="M720.146 58.614s-1.032.7-3.469.644c-2.437-.055-2.842.615-3.929.957a23.058 23.058 0 0 0-1.611.553s-.347.98-.505 1.134c0 0 .877.28 2.705-.703 1.832-.987 2.489-1.083 3.355-.998.862.084 1.316.464 2.027.35.704-.114 1.887-.483 1.928-.682 0 0-.369-1.19-.501-1.255Z"/><path fill="#FFCB48" d="m711.668 61.858-.089-.747a.165.165 0 0 1 .118-.174l.516-.14a.161.161 0 0 1 .199.118l.159.652s-.435.247-.903.291Z"/><path fill="#FD9E38" d="M711.568 57.037a4.781 4.781 0 0 1 2.355-1.834c.325-.11.671-.166.999-.21.336-.033.675-.051 1.01-.033.343.022.686.074 1.007.18.66.214 1.212.634 1.662 1.116-.545-.375-1.117-.703-1.74-.85-.619-.151-1.264-.133-1.905-.063a5.249 5.249 0 0 0-.94.177 5.187 5.187 0 0 0-.881.36 7.28 7.28 0 0 0-1.567 1.157Z"/><path fill="#D5F5D8" d="M724.009 429.423c23.572 0 42.681-3.842 42.681-8.581 0-4.739-19.109-8.581-42.681-8.581-23.573 0-42.682 3.842-42.682 8.581 0 4.739 19.109 8.581 42.682 8.581Z"/><path fill="#67CB33" d="M740.39 236.634c-.218 0-.435-.066-.627-.199l-28.645-19.91a1.099 1.099 0 0 1 1.257-1.801l28.645 19.91a1.098 1.098 0 0 1-.63 2ZM740.032 256.883a1.1 1.1 0 0 1-.626-.199l-28.645-19.91a1.1 1.1 0 0 1 1.257-1.801l28.644 19.91c.498.346.62 1.031.273 1.528-.21.31-.553.472-.903.472Z"/><path fill="#A3E381" d="M711.391 236.977c-.354 0-.696-.17-.91-.479a1.096 1.096 0 0 1 .287-1.525l29.718-20.252a1.1 1.1 0 0 1 1.529.287 1.095 1.095 0 0 1-.287 1.525l-29.721 20.252a1.103 1.103 0 0 1-.616.192ZM711.391 256.883c-.354 0-.696-.17-.91-.483a1.091 1.091 0 0 1 .291-1.524l29.36-19.91a1.097 1.097 0 1 1 1.235 1.815l-29.36 19.91a1.073 1.073 0 0 1-.616.192Z"/><path fill="#67CB33" d="M739.815 277.466c-.222 0-.435-.062-.627-.195l-28.648-19.91a1.094 1.094 0 0 1-.273-1.528 1.097 1.097 0 0 1 1.53-.276l28.644 19.91c.502.346.623 1.031.277 1.528a1.105 1.105 0 0 1-.903.471ZM739.457 297.719c-.221 0-.435-.063-.627-.195l-28.648-19.91a1.098 1.098 0 0 1-.273-1.529 1.102 1.102 0 0 1 1.53-.276l28.645 19.91c.501.346.623 1.027.276 1.528a1.106 1.106 0 0 1-.903.472Z"/><path fill="#A3E381" d="M710.809 277.809a1.096 1.096 0 0 1-.62-2.003l29.718-20.253a1.099 1.099 0 0 1 1.238 1.816l-29.717 20.252a1.09 1.09 0 0 1-.619.188ZM710.809 297.719a1.09 1.09 0 0 1-.911-.483 1.095 1.095 0 0 1 .292-1.524l29.363-19.91a1.097 1.097 0 1 1 1.231 1.819l-29.36 19.91a1.098 1.098 0 0 1-.615.188Z"/><path fill="#67CB33" d="M738.687 318.303c-.218 0-.435-.063-.627-.196l-28.645-19.909a1.096 1.096 0 0 1-.276-1.529 1.102 1.102 0 0 1 1.533-.272l28.645 19.906c.498.346.623 1.031.273 1.528a1.098 1.098 0 0 1-.903.472ZM738.329 338.555c-.217 0-.435-.066-.626-.199l-28.645-19.91a1.096 1.096 0 0 1-.277-1.528 1.109 1.109 0 0 1 1.534-.276l28.644 19.909c.498.347.623 1.032.273 1.529-.21.309-.553.475-.903.475Z"/><path fill="#A3E381" d="M709.685 318.645a1.1 1.1 0 0 1-.62-2.007l29.718-20.252a1.1 1.1 0 0 1 1.242 1.815l-29.721 20.253a1.104 1.104 0 0 1-.619.191ZM709.684 338.555c-.35 0-.693-.17-.906-.483a1.091 1.091 0 0 1 .291-1.524l29.36-19.91a1.094 1.094 0 0 1 1.526.291c.343.501.21 1.186-.292 1.525l-29.359 19.909a1.106 1.106 0 0 1-.62.192Z"/><path fill="#67CB33" d="M738.152 358.804a1.08 1.08 0 0 1-.626-.196l-28.649-19.909a1.1 1.1 0 0 1 1.257-1.805l28.645 19.91c.501.346.623 1.031.276 1.532a1.109 1.109 0 0 1-.903.468ZM737.798 379.056c-.217 0-.435-.066-.626-.199l-28.649-19.91a1.1 1.1 0 0 1 1.257-1.805l28.645 19.91c.501.346.623 1.031.276 1.529-.217.309-.56.475-.903.475Z"/><path fill="#A3E381" d="M709.15 359.146c-.354 0-.697-.166-.907-.479a1.094 1.094 0 0 1 .288-1.528l29.717-20.253a1.1 1.1 0 0 1 1.239 1.816l-29.718 20.252a1.1 1.1 0 0 1-.619.192ZM709.15 379.056c-.354 0-.697-.17-.91-.483a1.094 1.094 0 0 1 .291-1.524l29.363-19.91a1.098 1.098 0 1 1 1.235 1.815l-29.363 19.91a1.084 1.084 0 0 1-.616.192Z"/><path fill="#67CB33" d="M737.441 398.7c-.218 0-.435-.062-.627-.195l-28.648-19.91a1.1 1.1 0 0 1 1.257-1.804l28.648 19.91a1.097 1.097 0 0 1-.63 1.999Z"/><path fill="#A3E381" d="M708.796 398.7c-.354 0-.696-.165-.91-.482a1.097 1.097 0 0 1 .291-1.525l29.363-19.91a1.096 1.096 0 0 1 1.526.295c.34.501.211 1.182-.294 1.525l-29.36 19.91a1.12 1.12 0 0 1-.616.187ZM749.682 215.605h-47.945v-74.55c0-2.85 2.323-5.167 5.176-5.167h37.59c2.853 0 5.176 2.317 5.176 5.167l.003 74.55Zm-46.843-1.098h45.741v-73.452a4.074 4.074 0 0 0-4.073-4.069h-37.591a4.075 4.075 0 0 0-4.073 4.069l-.004 73.452Z"/><path fill="#A3E381" d="M717.646 136.205h-1.098v75.573h1.098v-75.573ZM708.726 136.205h-1.102v75.573h1.102v-75.573ZM726.567 136.205h-1.099v75.573h1.099v-75.573ZM744.415 136.205h-1.102v75.573h1.102v-75.573ZM735.491 136.776h-1.099v74.431h1.099v-74.431Z"/><path fill="#67CB33" d="M749.66 207.366h-47.985v8.261h47.985v-8.261ZM730.809 416.025c-.187 0-.375-.048-.545-.144l-22.448-12.849a1.096 1.096 0 0 1-.406-1.499 1.103 1.103 0 0 1 1.5-.409l22.449 12.849c.527.302.707.973.405 1.499a1.105 1.105 0 0 1-.955.553Z"/><path fill="#67CB33" d="M715.243 416.025c-.38 0-.748-.195-.955-.545a1.104 1.104 0 0 1 .399-1.503l22.831-13.244a1.1 1.1 0 0 1 1.102 1.901l-22.828 13.244a1.123 1.123 0 0 1-.549.147Z"/><path fill="#67CB33" d="M742.107 414.927h-36.632v1.566h36.632v-1.566Z"/><path fill="#67CB33" d="m702.607 403.179 3.314 12.529h2.068v-12.529h-5.382Z"/><path fill="#67CB33" d="M706.102 421.778a6.055 6.055 0 0 0 6.056-6.052 6.054 6.054 0 0 0-6.056-6.051 6.055 6.055 0 0 0-6.057 6.051 6.055 6.055 0 0 0 6.057 6.052Z"/><path fill="#67CB33" d="M706.102 417.612a1.886 1.886 0 1 0-1.888-1.886c0 1.042.845 1.886 1.888 1.886ZM746.122 402.788l-3.314 12.533h-2.068v-12.533h5.382Z"/><path fill="#67CB33" d="M742.627 421.394c3.347 0 6.06-2.71 6.06-6.054a6.057 6.057 0 0 0-6.06-6.055 6.057 6.057 0 0 0-6.06 6.055 6.057 6.057 0 0 0 6.06 6.054Z"/><path fill="#67CB33" d="M742.627 417.229a1.89 1.89 0 1 0 .001-3.78 1.89 1.89 0 0 0-.001 3.78ZM748.687 397.599h-48.085v6.077h48.085v-6.077Z"/><path fill="#D5F5D8" d="M641.385 41.956c1.393-3.591 4.106-6.191 7.143-8.099.008-.011.026-.022.037-.022 1.755-1.462 3.73-2.608 5.684-3.488 6.134-2.755 12.809-3.499 19.256-2.401 5.854.99 11.56 3.499 16.544 7.443 3.678 2.913 9.465 7.955 7.619 14.312-.557 1.908-1.655 3.388-3.027 4.567a.242.242 0 0 0-.033.313c1.652 2.147 4.774 5.69 8.205 6.99.185.07.159.398-.036.409-2.699.176-10.122.239-16.956-3.492a.138.138 0 0 0-.107-.01c-.498.15-.977.286-1.419.415a53.29 53.29 0 0 1-20.337 2.015c-7.066-.652-28.342-4.088-22.573-18.952Z"/><path fill="#295A6E" d="M418.099 91.148s-2.831-.762-1.492-5.495c1.33-4.736 5.149-4.4 5.149-4.4s3.259-.667 4.792 1.134c1.537 1.8 3.605 8.4-1.869 9.667-5.47 1.267-6.58-.906-6.58-.906Z"/><path fill="#357A5F" d="M409.82 100.359c-.862-.873-1.964-2.482-2.893-1.68-1.711 1.481-4.685 5.698-7.649 11.053-2.967 5.359-3.926 7.992-3.516 11.395.357 2.935 5.297 5.292 5.297 5.292s4.051-13.468 5.654-18.223c.925-2.751 4.464-6.459 3.107-7.837Z"/><path fill="#2C6D51" d="M431.782 99.803c.859-.873-.405-2.549.771-2.202 1.872.549 5.411 4.983 9.211 12.242 1.39 2.655 2.422 4.754 3.185 6.412a7.61 7.61 0 0 1-2.543 9.409l-1.773 1.245s-7.015-17.976-9.23-21.6c-1.512-2.475-.977-4.132.379-5.506Z"/><path fill="#FF9A2E" d="M410.465 123.528s-6.454 7.775-10.424 16.327c-1.762 3.789-4.209 11.126-1.64 15.6 1.876 3.267 8.574 5.381 8.574 5.381l16.576-9.546 2.053-23.482-15.139-4.28Z"/><path fill="#3B3B3B" d="M411.722 218.706c.513-.777.992-5.491-1.271-7.631.28.412.667 2.456.044 2.574-.91.17-1.92-1.867-2.252-2.865-.358.615-.564 1.44-.538 2.081.129 3.031 2.823 7.664 4.017 5.841Z"/><path fill="#FF97A6" d="M408.56 208.942c.011.899.014 1.389.014 1.389a2.174 2.174 0 0 0-.335.453c-.114 1.215 1.051 4.029 2.492 3.745.711-.14 1.025-1.488.133-2.839-.657-.991-.977-1.433-1.095-1.554.118-.339.25-.711.398-1.113 1.043-2.869-1.64-2.316-1.607-.081Z"/><path fill="#FF9A2E" d="M428.933 125.002s8.043 10.5 12.083 18.366c1.909 3.716 1.876 9.572.328 14.732-1.084 3.605-8.301 7.001-8.301 7.001l-17.1-13.177-2.149-24.643 15.139-2.279Z"/><path fill="#3B3B3B" d="M425.903 218.452c-.417-.833-.339-5.573 2.16-7.432-.328.375-.947 2.364-.347 2.552.881.276 2.131-1.628 2.573-2.578.284.652.395 1.495.291 2.132-.486 2.991-3.704 7.278-4.677 5.326Z"/><path fill="#FF97A6" d="M430.197 209.13c-.118.891-.184 1.374-.18 1.381.103.129.199.299.276.486-.026 1.219-1.515 3.879-2.912 3.426-.693-.225-.844-1.603.203-2.836.766-.906 1.139-1.308 1.268-1.415-.078-.353-.166-.736-.262-1.152-.697-2.972 1.902-2.107 1.607.11Z"/><path fill="#357A5F" d="M406.927 98.68c2.661-1.956 9.012-3.569 23.727-1.606.999.133 1.272.317 1.806.611a2.177 2.177 0 0 1 1.121 1.71c.328 3.686.295 4.636.295 4.636-1.342 2.696-1.721 9.752-2.285 12.478-.723 3.513-1.464 10.901-1.464 10.901s-6.546 1.116-11.371 1.168c-3.959.04-10.576-.343-10.775-2.317-.391-3.922-.656-9.163-1.095-14.827-.501-6.482.041-12.754.041-12.754Z"/><path fill="#2C6D51" d="M421.159 96.338s2.355.066 3.387.128c1.891.122 3.922.317 6.105.612.751.1 1.12.195 1.489.342.973.387 1.677 1.249 1.909 2.265.711 3.145.188 6.062.188 6.062.019 3.087.03 7.801-.538 10.526-.723 3.514-2.809 11.366-2.809 11.366s.302.511-10.878.946c0 0 2.732-8.209 2.437-16.496-.321-9.119-1.29-15.751-1.29-15.751Z"/><path fill="#FF97A6" d="M422.434 91.686s.181 5.37-.269 5.911c-.446.546-1.935 1.15-2.595-.268-.66-1.418.686-5.919.686-5.919l2.178.276Z"/><path fill="#C95D77" d="M422.445 95.582c-.888.347-2.075-.47-2.772-1.793.092-.965.074-.401.266-1.197l2.458-1.215c.011.77.081 3.314.048 4.206Z"/><path fill="#FF97A6" d="M418.099 89.996c-.224-.634.104-2.59.288-3.547.077-.398.287-.766.634-.98 1.858-1.13 5.492-.129 6.137.424.785.674.645 1.907.564 2.828-.081.917-1.238 5.432-4.198 4.935-3.214-.541-3.115-1.834-3.425-3.66Z"/><path fill="#FFCB48" d="M410.816 209.996h-3.285s-11.74-51.406 0-64.897c2.374-2.729 9.518-4.902 12.622 1.201 3.634 7.152-9.337 63.696-9.337 63.696Z"/><path fill="#F9BD38" d="m427.831 209.907 3.262.387s18.416-49.631 8.349-64.407c-2.039-2.987-8.876-5.988-12.673-.291-4.46 6.677 1.062 64.311 1.062 64.311Z"/><path fill="#E5E5E5" d="M438.882 141.556h-33.949a4.26 4.26 0 0 1-4.262-4.257v-19.722a4.26 4.26 0 0 1 4.262-4.258h33.949a4.26 4.26 0 0 1 4.261 4.258v19.722a4.26 4.26 0 0 1-4.261 4.257Z"/><path fill="#C1C1C1" d="M412.345 141.556h-6.594v.781h6.594v-.781ZM435.262 141.556h-6.595v.781h6.595v-.781Z"/><path fill="#E5E5E5" d="M442.044 144.035h-40.296a.79.79 0 0 1-.789-.788v-.118c0-.438.354-.788.789-.788h40.296c.435 0 .793.353.793.788v.118a.79.79 0 0 1-.793.788Z"/><path fill="#fff" d="M422.442 129.09a3.194 3.194 0 1 0 0-6.387 3.195 3.195 0 0 0-3.196 3.193 3.195 3.195 0 0 0 3.196 3.194Z"/><path fill="#FF97A6" d="M412.135 96.717s2.393 10.588 9.772 10.124c7.376-.464 9.466-9.645 9.466-9.645s-4.711-1.017-10.811-1.135c-2.706-.055-5.511.21-8.427.656Z"/><path fill="#295A6E" d="M418.453 89.79s5.961-1.408 6.27-3.684c.314-2.276-4.449-.987-4.449-.987s-1.736 1.823-1.821 4.67Z"/><path fill="#FFCB48" d="M429.124 86.556h-13.738v-3.068a6.864 6.864 0 0 1 6.868-6.861 6.864 6.864 0 0 1 6.867 6.86l.003 3.069Z"/><path fill="#FF9A2E" d="M419.253 86.696h-1.401l.199-1.566a.259.259 0 0 1 .255-.224h.689c.144 0 .258.114.258.257v1.533ZM425.343 86.556h1.397l-.196-1.57a.257.257 0 0 0-.254-.224h-.693a.255.255 0 0 0-.254.254v1.54Z"/><path fill="#FFCB48" d="M423.566 79.507h-2.614v-2.25c0-.723.583-1.304 1.305-1.304.719 0 1.305.585 1.305 1.303l.004 2.25Z"/><path fill="#FFCB48" d="M421.104 79.507h-1.324V77.87c0-.729.594-1.322 1.324-1.322v2.958ZM423.374 79.507h1.36v-1.599c0-.751-.608-1.362-1.36-1.362v2.96Z"/><path fill="#FF9A2E" d="M415.401 86.232s1.873.383 7.162.309c5.29-.07 6.569-.538 6.569-.538s.158 1.705-.97 2.074c-1.043.338-8.677 1.02-11.618.048-.741-.243-1.228-1.032-1.15-1.86.007-.011.007-.022.007-.033ZM420.952 76.623c.037.31.052.622.066.935.015.313.019.626.023.936-.004.313-.008.626-.023.939a12.64 12.64 0 0 1-.066.935c-.037-.309-.051-.622-.066-.935-.015-.313-.018-.626-.022-.94.004-.309.007-.622.022-.935.015-.313.029-.622.066-.935ZM423.466 76.623a19.56 19.56 0 0 1 .085 1.87 19.613 19.613 0 0 1-.085 1.875c-.037-.309-.055-.622-.066-.935-.018-.313-.018-.626-.022-.94.004-.309.004-.622.022-.935.018-.309.033-.622.066-.935ZM419.832 77.061a6.228 6.228 0 0 1 0 1.716 6.228 6.228 0 0 1 0-1.716ZM424.638 77.061c.048.313.059.622.059.936 0 .309-.011.622-.059.935a6.638 6.638 0 0 1-.055-.935c0-.31.011-.623.055-.936Z"/><path fill="#FF4D4D" d="M244.786 31.448s.277-7.318-7.21-7.738c-3.383-.191-3.509 2.416-6.159 1.223-2.65-1.19-1.058.472-3.141 1.753-2.079 1.282-8.006-3.69-10.306-1.709-2.304 1.986-1.943 3.617-2.223 6.203-.276 2.585-4.688-1.956-6.815 1.506-2.127 3.462-4.516 13.475 8.784 21.121 8.994 5.175 25.419-7.97 27.715-11.973 1.847-3.23 5.758-12.456-.645-10.386Z"/><path fill="#FF7B71" d="M244.786 31.448c-.125-1.985-.788-4.003-2.189-5.373-1.357-1.4-3.347-2.007-5.271-2.003-.962-.008-1.81.283-2.632.817-.417.254-.874.575-1.471.715-.593.147-1.213.025-1.718-.17-.276-.1-.479-.191-.704-.283-.217-.078-.446-.159-.604-.17-.085-.01-.122 0-.103 0 .014-.022-.008.011-.048.085-.078.17-.166.457-.295.71-.258.531-.697.98-1.172 1.271-.575.346-1.25.365-1.781.276-1.095-.187-2.023-.615-2.96-.998-.929-.39-1.839-.791-2.764-1.079-.9-.265-1.921-.504-2.599-.088-.081.055-.166.092-.254.155l-.266.239a9.461 9.461 0 0 0-.494.508 4.38 4.38 0 0 0-.763 1.157c-.383.843-.453 1.834-.545 2.835l-.074.756c-.037.246-.037.504-.147.81-.089.298-.413.596-.738.626-.313.051-.586.004-.844-.052-1.01-.254-1.92-.67-2.901-.736-.98-.114-1.968.364-2.514 1.23.236-.442.579-.84 1.021-1.112.443-.277.981-.372 1.493-.376 1.04 0 2.035.368 2.986.53.483.081.911.066.988-.302.059-.17.063-.423.081-.674l.041-.747c.051-.995.066-2.055.471-3.076.203-.504.487-.98.833-1.388.17-.206.354-.401.542-.582l.288-.269c.11-.088.251-.17.383-.254.251-.195.557-.213.844-.306.284-.018.575-.055.848-.025a7.475 7.475 0 0 1 1.567.309c.999.298 1.935.692 2.864 1.072.921.368 1.858.758 2.753.895.457.08.837.044 1.139-.118.384-.232.675-.53.863-.903.103-.191.162-.386.291-.677.077-.144.177-.354.42-.483.233-.132.468-.121.631-.103.648.085 1.091.376 1.529.527.421.17.841.247 1.228.155.391-.081.792-.328 1.227-.593.863-.571 2.009-.921 3.071-.844 2.068.078 4.206.833 5.599 2.416 1.379 1.58 1.932 3.694 1.85 5.69Z"/><path fill="#193B1A" d="M207.653 158.269c-.251-.655-1.818-1.388-3.071-1.904.365.28.708.663.089.777-.911.17-2.798-.733-3.311-1.425-.258.457-.375 1.112-.412 1.569-.048.586 7.11 2.044 6.705.983ZM170.899 158.777c-.078-.688 2.753-2.154 3.737-2.32-.324.177-.829.582-.453.869.542.42 1.858.262 2.414-.291.03.531-.099 1.219-.221 1.684-.151.604-5.301 1.672-5.477.058Z"/><path fill="#FF97A6" d="M205.33 156.686c-.667-.509-2.72-1.234-2.749-1.367 1.662-3.311 14.099-36.777 15.75-44.394 2.886-13.313 5.57-47.921 4.667-51.317-3.295-1.875-12.175-1.727-17.793-3.035-.111.254-7.615 4.607-12.289 10.577-7.284 9.3-15.003 77.231-17.078 89.005-.118.037-.501.078-1.334.376-.332.166-1.534.851-1.173 1.153.531.442 2.691-.022 3.27-.553a1.539 1.539 0 0 0-.055-.412c-.034-.107 29.617-72.786 29.617-72.786l.915 25.055s-5.747 46.854-5.81 46.917c.317.803 2.312 1.381 3.233 1.455.63.047 1.106-.31.829-.674Z"/><path fill="#2E5B2B" d="M206.005 56.234s-6.782 1.647-14.232 11.2c-2.613 3.355-8.397 25.287-9.359 30.638l5.076.608 4.817-18.72-2.595 18.985s21.579 5.075 32.047 2.464c0 0 5.905-19.35 1.711-46.736l-17.465 1.561Z"/><path fill="#193B1A" d="M204.199 101.468s.77.092 1.154.136c5.824.648 12.064.888 16.403-.195 0 0 5.905-19.35 1.71-46.736l-7.251.648-1.916-.129s4.312 10.4.954 20.304c-4.242 12.518-11.054 25.972-11.054 25.972Z"/><path fill="#AAE8B7" d="M225.567 35.868c2.835 1.075 8.592 6.043 9.193 6.533 2.514 2.052 4.143 2.225 2.791 6.7-.782 2.581-3.111 5.56-4.162 6.732-4.998 5.587-10.623 10.316-10.623 10.316s-5.846-.332-10.823-3.639c-5.706-3.797-5.938-6.276-5.938-6.276s2.326-7.023 10.852-17.854c.553-.7 5.385-3.783 8.71-2.512Z"/><path fill="#A0E29F" d="M240.658 66.215s7.686 11.203 11.88 13.177c.317.151 1.596.693 2.356.774 2.547.272 6.391-1.753 2.971-6.633-5.717-8.14-13.713-12.724-13.713-12.724s.811 2.773-3.494 5.406Z"/><path fill="#A0E29F" d="M237.138 44.272c-2.348-3.038-6.362 2.976 3.52 21.94 1.069 2.05 6.064.35 4.67-2.704-3.608-7.915-5.735-16.046-8.19-19.236Z"/><path fill="#6BC165" d="m266.003 73.86-1.717-4.105-13.298 5.553 1.717 4.105 13.298-5.553Z"/><path fill="#6BC165" d="m229.64 89.495-2.038-4.862a1.936 1.936 0 0 1 1.036-2.526l19.61-8.198a4.256 4.256 0 0 1 5.569 2.283l.24.578a4.252 4.252 0 0 1-2.282 5.565l-19.61 8.198a1.935 1.935 0 0 1-2.525-1.038Z"/><path fill="#C43B72" d="m234.307 89.635-3.528-8.423 17.472-7.303a4.257 4.257 0 0 1 5.57 2.283l.24.575a4.254 4.254 0 0 1-2.282 5.564l-17.472 7.304Z"/><path fill="#AF2B67" d="M309.216 60.978c.239 10.297-9.249 20.573-21.147 22.911-5.795 1.138-11.309.254-15.534-2.49-4.224-2.747-6.635-7.012-6.789-12.02l-.004-.137c-.236-10.297 9.252-20.572 21.147-22.911 11.987-2.353 21.999 4.158 22.327 14.51v.137Zm4.817-.917c0-.055-.003-.11-.003-.166-.395-12.647-12.629-20.598-27.266-17.726-14.575 2.862-26.127 15.395-25.836 27.987.004.055.004.11.004.162.394 12.65 12.628 20.602 27.266 17.726 14.574-2.858 26.127-15.391 25.835-27.983Z"/><path fill="#C43B72" d="M308.021 58.827c.236 10.297-9.252 20.573-21.15 22.911-5.791 1.138-11.309.25-15.534-2.493-4.22-2.744-6.631-7.012-6.789-12.02l-.004-.137c-.236-10.298 9.252-20.573 21.151-22.911 11.983-2.354 21.998 4.154 22.323 14.51l.003.14Zm4.818-.913c-.004-.056-.004-.11-.007-.162-.395-12.651-12.629-20.602-27.266-17.726-14.571 2.861-26.124 15.394-25.836 27.986.004.055.004.11.007.166.395 12.647 12.629 20.599 27.263 17.726 14.574-2.865 26.127-15.398 25.839-27.99Z"/><path fill="#D5F5D8" d="M286.9 82.777c-12.665 2.486-23.211-4.368-23.554-15.314-.343-10.941 9.646-21.832 22.316-24.318 12.665-2.486 23.211 4.372 23.554 15.314.343 10.942-9.647 21.828-22.316 24.318Z" opacity=".69"/><path fill="#FF97A6" d="M255.823 78.383c.062.015.114.063.177.048.549-.125 3.184-.777 3.273-1.786.136-1.547-1.394-2.733-1.921-2.526-.471.184.037 1.127.037 1.127s.081-.185-.394-.133c-.476.052-.133 1.046-.192 1.584-.063.515-1.78 1.484-.98 1.686ZM238.115 81.602s.457-.092.899-.213c.509-.14.995-.317.763-.442-.232-.126-.667-.17-1.128-.159-1.028.026-2.189.328-1.426.663.482.21.892.151.892.151Z"/><path fill="#FF97A6" d="M236.12 81.13a.547.547 0 0 1 .435-.158c.561.045 1.888.17 2.426.376.693.261 2.267 1.786 2.234 2.195-.03.405-.922-.155-.922-.155s.999.564.818 1.046c-.18.483-1.769-.302-1.769-.302s.317.766-.044.663c-.28-.08-1.132-.549-1.692-.858-.17-.092-.785-.475-.911-.622-.383-.446-1.187-1.407-1.161-1.51.026-.092.369-.45.586-.674Z"/><path fill="#A0E29F" d="M216.429 64.738s13.296-10.783 16.079-18.809c.468-1.344.288-4.014 1.161-4.434.874-.42 3.966 2.98 4.191 3.878.221.899-.453 6.409-5.142 11.196-4.685 4.784-9.359 10.29-9.359 10.29s-6.771-1.598-6.93-2.12Z"/><path fill="#D5F5D8" d="M221.258 36.652c-1.732 1.153-3.94 5.455-3.775 11.336.152 5.318.764 15.527 5.253 19.98 3.318 3.293 3.038-6.89 3.038-6.89l-1.902-13.373s-.712-12.32-2.614-11.053Z"/><path fill="#D5F5D8" d="M220.108 60.27c-1.766 4.328 7.291 22.717 14.306 21.936 2.609-.29 3.159-1.94 3.159-1.94l-12.002-20.573s-3.476-4.302-5.463.578Z"/><path fill="#FF97A6" d="M238.063 37.684s-4.593 2.857-4.895 3.45c-.299.593-.284 1.89 1.143 1.529 1.43-.361 4.755-3.72 4.755-3.72l-1.003-1.26Z"/><path fill="#C95D77" d="M238.749 37.131s-4.593 2.858-4.896 3.451c-.302.593-.165 1.956 1.265 1.595 1.426-.361 4.63-3.79 4.63-3.79l-.999-1.256Z"/><path fill="#FF97A6" d="M243.117 37.256c-.041-2.357-4.077-4.294-5.01-4.29-1.021 0-1.714 1.02-2.241 1.764-.531.744-2.171 4.368-.018 6.412 4.047 3.856 7.269-3.886 7.269-3.886Z"/><path fill="#FF4D4D" d="M231.052 35.415s6.108 3.506 11.11-.17c0 0-1.404 3.9 1.095 6.64 0 0 3.748-4.33.582-8.813-3.166-4.482-12.389-.324-12.787 2.343Z"/></svg>